<?xml version="1.0" standalone="no"?>
<!DOCTYPE svg PUBLIC "-//W3C//DTD SVG 20010904//EN"
 "http://www.w3.org/TR/2001/REC-SVG-20010904/DTD/svg10.dtd">
<svg version="1.0" xmlns="http://www.w3.org/2000/svg"
 width="751.000000pt" height="751.000000pt" viewBox="0 0 751.000000 751.000000"
 preserveAspectRatio="xMidYMid meet">
<metadata>
Created by potrace 1.14, written by Peter Selinger 2001-2017
</metadata>
<g transform="translate(0.000000,751.000000) scale(0.100000,-0.100000)"
fill="#000000" stroke="none">
<path d="M3726 6040 c-60 -5 -119 -11 -132 -14 l-24 -6 -2 -256 -3 -257 -100
-28 c-166 -46 -362 -133 -501 -220 -33 -22 -65 -39 -70 -39 -4 0 -87 79 -184
175 -129 128 -183 175 -200 175 -30 0 -430 -396 -430 -426 0 -12 69 -88 175
-194 96 -96 175 -179 175 -184 0 -6 -20 -48 -44 -95 -79 -153 -133 -312 -173
-503 l-18 -88 -282 0 c-259 0 -282 -1 -287 -17 -17 -52 -26 -317 -16 -457 6
-82 13 -153 16 -158 3 -4 132 -8 288 -8 l282 0 18 -87 c40 -195 99 -367 178
-516 l46 -85 -179 -178 c-114 -114 -179 -186 -179 -199 0 -13 73 -93 203 -223
154 -154 208 -202 227 -202 19 0 68 43 201 176 l177 177 86 -52 c159 -97 382
-190 554 -231 l42 -11 0 -253 c0 -224 2 -255 17 -267 25 -22 600 -20 613 1 6
8 10 126 10 267 l0 252 43 11 c177 45 382 130 538 223 53 31 100 57 105 57 5
0 88 -79 184 -175 133 -133 181 -175 200 -175 35 0 420 384 420 420 0 19 -43
68 -177 202 l-176 176 61 124 c78 158 130 318 170 523 l8 40 284 3 c189 1 288
6 297 13 10 9 13 72 13 304 0 270 -1 293 -18 308 -16 15 -52 17 -298 17 l-279
0 -23 112 c-33 159 -93 338 -157 464 l-55 108 175 176 c131 132 175 182 175
201 0 18 -50 74 -203 227 -128 128 -210 202 -222 202 -13 0 -87 -66 -200 -180
l-179 -179 -26 16 c-168 112 -410 219 -600 266 l-55 13 -5 260 -5 259 -45 6
c-85 12 -325 17 -434 9z m369 -1184 c57 -10 231 -65 248 -79 13 -10 -12 -57
-158 -307 -96 -162 -177 -295 -182 -295 -4 0 -35 4 -68 8 -213 27 -435 -144
-464 -357 -4 -31 -10 -58 -13 -61 -4 -5 -648 -255 -654 -255 -1 0 -8 32 -14
72 -20 114 -8 342 23 460 119 454 523 794 981 827 89 6 222 0 301 -13z m588
-314 c85 -86 137 -156 191 -252 l35 -65 -318 -123 c-175 -67 -322 -122 -327
-121 -5 0 -23 19 -39 42 -17 22 -49 55 -71 72 l-41 32 166 284 c91 156 170
290 174 297 12 18 138 -72 230 -166z m276 -454 c87 -269 53 -604 -86 -860
-181 -330 -494 -538 -872 -578 -200 -21 -397 13 -579 100 l-103 49 61 83 c33
46 125 172 203 280 118 165 145 197 162 192 11 -3 48 -10 83 -17 179 -33 372
73 455 250 27 59 31 79 32 153 0 47 -3 96 -7 110 -7 25 -4 27 305 147 172 66
317 121 324 122 6 1 16 -14 22 -31z m-1456 -502 c18 -40 46 -81 77 -112 28
-27 48 -55 45 -62 -3 -7 -93 -135 -201 -283 l-196 -269 -48 40 c-145 121 -277
307 -334 468 l-14 38 317 121 c174 67 318 122 321 123 3 0 18 -29 33 -64z"/>
</g>
</svg>
